<svg id="Calque_2" data-name="Calque 2" xmlns="http://www.w3.org/2000/svg" viewBox="0 0 455.92 392.97"><path d="M366.82,79.33c21.89,0,43.41,7.12,60.68,21.67,51.1,43.1,43.5,113.9,7.3,150.8L259.4,430.5a4.11,4.11,0,0,1-6.8,0L77.2,251.8c-36.5-37.2-43.9-107.6,7.3-150.7,17.35-14.58,38.89-21.69,60.77-21.69A106.6,106.6,0,0,1,221,111.6l35,35.7,35-35.7a106.7,106.7,0,0,1,75.82-32.27m0-20h0c-33.38,0-66.22,13.94-90.09,38.26L256,118.73,235.28,97.6c-23.83-24.27-56.63-38.19-90-38.19A114.42,114.42,0,0,0,71.63,85.79c-26.46,22.28-41.92,53.15-43.53,86.93-1.64,34.4,11.38,69.2,34.82,93.09l175.41,178.7.06.07.07.06c6.33,6.33,13,7.66,17.54,7.66s11.21-1.33,17.54-7.66l.07-.06.06-.07,175.4-178.7c23.35-23.79,36.31-58.6,34.68-93.11-1.6-33.86-17-64.76-43.36-87a114.15,114.15,0,0,0-73.57-26.38Z" transform="translate(-27.96 -59.33)"/></svg>